<svg width="27" height="27" viewBox="0 0 27 27" fill="none" xmlns="http://www.w3.org/2000/svg">
<path d="M0 1.625C0 1.39294 0.0921872 1.17038 0.256282 1.00628C0.420376 0.842187 0.642936 0.75 0.875 0.75H3.5C3.69518 0.750054 3.88474 0.815364 4.03853 0.935543C4.19232 1.05572 4.30152 1.22387 4.34875 1.41325L5.0575 4.25H25.375C25.5035 4.25012 25.6304 4.27853 25.7466 4.33321C25.8629 4.3879 25.9657 4.46751 26.0477 4.56641C26.1297 4.6653 26.1889 4.78104 26.2212 4.90541C26.2534 5.02977 26.2579 5.15971 26.2343 5.286L23.6093 19.286C23.5717 19.4865 23.4653 19.6676 23.3084 19.798C23.1515 19.9284 22.954 19.9998 22.75 20H7C6.79601 19.9998 6.59849 19.9284 6.44159 19.798C6.2847 19.6676 6.17829 19.4865 6.14075 19.286L3.5175 5.31225L2.8175 2.5H0.875C0.642936 2.5 0.420376 2.40781 0.256282 2.24372C0.0921872 2.07962 0 1.85706 0 1.625ZM5.4285 6L7.72625 18.25H22.0238L24.3215 6H5.4285ZM8.75 20C7.82174 20 6.9315 20.3687 6.27513 21.0251C5.61875 21.6815 5.25 22.5717 5.25 23.5C5.25 24.4283 5.61875 25.3185 6.27513 25.9749C6.9315 26.6313 7.82174 27 8.75 27C9.67826 27 10.5685 26.6313 11.2249 25.9749C11.8813 25.3185 12.25 24.4283 12.25 23.5C12.25 22.5717 11.8813 21.6815 11.2249 21.0251C10.5685 20.3687 9.67826 20 8.75 20ZM21 20C20.0717 20 19.1815 20.3687 18.5251 21.0251C17.8687 21.6815 17.5 22.5717 17.5 23.5C17.5 24.4283 17.8687 25.3185 18.5251 25.9749C19.1815 26.6313 20.0717 27 21 27C21.9283 27 22.8185 26.6313 23.4749 25.9749C24.1313 25.3185 24.5 24.4283 24.5 23.5C24.5 22.5717 24.1313 21.6815 23.4749 21.0251C22.8185 20.3687 21.9283 20 21 20ZM8.75 21.75C9.21413 21.75 9.65925 21.9344 9.98744 22.2626C10.3156 22.5908 10.5 23.0359 10.5 23.5C10.5 23.9641 10.3156 24.4092 9.98744 24.7374C9.65925 25.0656 9.21413 25.25 8.75 25.25C8.28587 25.25 7.84075 25.0656 7.51256 24.7374C7.18437 24.4092 7 23.9641 7 23.5C7 23.0359 7.18437 22.5908 7.51256 22.2626C7.84075 21.9344 8.28587 21.75 8.75 21.75ZM21 21.75C21.4641 21.75 21.9092 21.9344 22.2374 22.2626C22.5656 22.5908 22.75 23.0359 22.75 23.5C22.75 23.9641 22.5656 24.4092 22.2374 24.7374C21.9092 25.0656 21.4641 25.25 21 25.25C20.5359 25.25 20.0908 25.0656 19.7626 24.7374C19.4344 24.4092 19.25 23.9641 19.25 23.5C19.25 23.0359 19.4344 22.5908 19.7626 22.2626C20.0908 21.9344 20.5359 21.75 21 21.75Z" fill="#141542"/>
</svg>
