<svg width="37" height="37" viewBox="0 0 37 37" fill="none" xmlns="http://www.w3.org/2000/svg">
<path d="M24.575 18.5C24.575 15.125 21.875 12.425 18.5 12.425C15.125 12.425 12.425 15.125 12.425 18.5C12.425 21.875 15.125 24.575 18.5 24.575C21.875 24.575 24.575 21.875 24.575 18.5ZM27.725 18.5C27.725 23.675 23.675 27.725 18.5 27.725C13.325 27.725 9.275 23.675 9.275 18.5C9.275 13.325 13.325 9.275 18.5 9.275C23.675 9.275 27.725 13.325 27.725 18.5ZM30.2 8.825C30.2 10.175 29.3 11.075 27.95 11.075C26.6 11.075 25.7 10.175 25.7 8.825C25.7 7.475 26.6 6.575 27.95 6.575C29.3 6.575 30.2 7.7 30.2 8.825ZM18.5 3.65C15.8 3.65 10.175 3.425 7.925 4.325C6.35 5 5 6.35 4.55 7.925C3.65 10.175 3.875 15.8 3.875 18.5C3.875 21.2 3.65 26.825 4.55 29.075C5 30.65 6.35 32 7.925 32.45C10.175 33.35 16.025 33.125 18.5 33.125C20.975 33.125 26.825 33.35 29.075 32.45C30.65 31.775 31.775 30.65 32.45 29.075C33.35 26.6 33.125 20.975 33.125 18.5C33.125 16.025 33.35 10.175 32.45 7.925C32 6.35 30.65 5 29.075 4.55C26.825 3.425 21.2 3.65 18.5 3.65ZM36.5 18.5V25.925C36.5 28.625 35.6 31.325 33.575 33.575C31.55 35.6 28.85 36.5 25.925 36.5H11.075C8.375 36.5 5.675 35.6 3.425 33.575C1.625 31.55 0.5 28.85 0.5 25.925V11.075C0.5 8.15 1.625 5.45 3.425 3.425C5.675 1.625 8.375 0.5 11.075 0.5H25.925C28.625 0.5 31.325 1.4 33.575 3.425C35.375 5.45 36.5 8.15 36.5 11.075V18.5Z" fill="white"/>
</svg>
