<svg width="40" height="34" viewBox="0 0 40 34" fill="none" xmlns="http://www.w3.org/2000/svg">
<path d="M0.5 10.6235V26.75C0.5 28.4739 1.18482 30.1272 2.40381 31.3462C3.62279 32.5652 5.27609 33.25 7 33.25H33C34.7239 33.25 36.3772 32.5652 37.5962 31.3462C38.8152 30.1272 39.5 28.4739 39.5 26.75V7.25C39.5 5.52609 38.8152 3.87279 37.5962 2.65381C36.3772 1.43482 34.7239 0.75 33 0.75H7C5.27609 0.75 3.62279 1.43482 2.40381 2.65381C1.18482 3.87279 0.5 5.52609 0.5 7.25V10.6235ZM7 4H33C33.862 4 34.6886 4.34241 35.2981 4.9519C35.9076 5.5614 36.25 6.38805 36.25 7.25V9.655L20 18.404L3.75 9.655V7.25C3.75 6.38805 4.09241 5.5614 4.7019 4.9519C5.3114 4.34241 6.13805 4 7 4ZM3.75 13.347L19.2297 21.68C19.4665 21.8074 19.7311 21.8741 20 21.8741C20.2689 21.8741 20.5335 21.8074 20.7703 21.68L36.25 13.347V26.75C36.25 27.612 35.9076 28.4386 35.2981 29.0481C34.6886 29.6576 33.862 30 33 30H7C6.13805 30 5.3114 29.6576 4.7019 29.0481C4.09241 28.4386 3.75 27.612 3.75 26.75V13.347Z" fill="white"/>
</svg>
