<svg width="31" height="42" viewBox="0 0 31 42" fill="none" xmlns="http://www.w3.org/2000/svg">
<path d="M5.29435 1.5343L8.08077 0.677161C9.34919 0.286345 10.7135 0.380302 11.9191 0.941492C13.1246 1.50268 14.089 2.49275 14.6322 3.72688L16.3662 7.6663C16.8334 8.72755 16.9636 9.91157 16.7384 11.0522C16.5132 12.1928 15.944 13.2329 15.1106 14.0263L12.0808 16.9114C12.0434 16.9472 12.0126 16.9896 11.9902 17.0366C11.6729 17.6983 12.1547 19.4657 13.6637 22.1366C15.3658 25.1469 16.6801 26.3366 17.2894 26.1532L21.2659 24.9103C22.355 24.5707 23.5208 24.5876 24.5999 24.9586C25.6791 25.3297 26.6175 26.0363 27.2836 26.9794L29.7478 30.4646C30.5214 31.5589 30.8798 32.9028 30.7563 34.2466C30.6328 35.5904 30.0358 36.8427 29.0763 37.7709L26.9563 39.8195C26.2191 40.5326 25.3239 41.0531 24.347 41.3363C23.3702 41.6196 22.3407 41.6574 21.3465 41.4463C15.443 40.1914 10.1538 35.3366 5.43367 26.988C0.711846 18.6343 -0.760261 11.52 1.13652 5.66916C1.45404 4.68963 1.99775 3.80254 2.72173 3.08285C3.44571 2.36316 4.32868 1.83202 5.29602 1.5343H5.29435ZM6.02285 3.99602C5.44241 4.17456 4.91259 4.49318 4.47814 4.92493C4.0437 5.35668 3.7174 5.88889 3.52681 6.47659C1.89188 11.5183 3.21627 17.9229 7.61413 25.7023C12.0086 33.4766 16.7724 37.848 21.8585 38.928C22.4553 39.0548 23.0733 39.0321 23.6596 38.8619C24.246 38.6918 24.7833 38.3792 25.2257 37.9509L27.3441 35.904C27.8609 35.4044 28.1825 34.7301 28.2492 34.0065C28.3159 33.2828 28.1231 32.5591 27.7066 31.9697L25.2425 28.4829C24.8839 27.9751 24.3787 27.5947 23.7977 27.3949C23.2168 27.1951 22.5892 27.1859 22.0028 27.3686L18.0162 28.6149C15.8106 29.2852 13.7359 27.408 11.4832 23.4206C9.5747 20.0469 8.91335 17.6092 9.72913 15.9069C9.88692 15.5777 10.1018 15.2812 10.3636 15.0309L13.3935 12.1457C13.8424 11.7185 14.149 11.1584 14.2703 10.5441C14.3917 9.92982 14.3216 9.29213 14.0699 8.72059L12.336 4.78288C12.0435 4.11818 11.5241 3.58493 10.8748 3.28271C10.2255 2.9805 9.49069 2.92998 8.80759 3.14059L6.02117 3.99773L6.02285 3.99602Z" fill="white"/>
</svg>
