<svg width="41" height="37" viewBox="0 0 41 37" fill="none" xmlns="http://www.w3.org/2000/svg">
<path d="M39.4653 0.819875C39.0578 0.474586 38.5643 0.24616 38.0374 0.158877C37.5105 0.0715944 36.9698 0.128716 36.4727 0.324172L2.58128 13.6347C1.98683 13.8612 1.48331 14.2768 1.14825 14.8175C0.813194 15.3583 0.665174 15.9942 0.726987 16.6273C0.782134 17.2602 1.04096 17.8581 1.46465 18.3315C1.88834 18.8048 2.45407 19.128 3.07699 19.2527L11.6875 20.9601V31.7187C11.6872 32.3007 11.8598 32.8697 12.1834 33.3535C12.507 33.8373 12.967 34.214 13.5051 34.4359C13.8612 34.5792 14.2412 34.6539 14.625 34.6562C15.0108 34.6576 15.3931 34.5819 15.7493 34.4338C16.1055 34.2856 16.4286 34.0679 16.6996 33.7933L21.4731 29.0382L28.6883 35.3906C29.221 35.8604 29.9058 36.1213 30.6161 36.125C30.9284 36.1314 31.2393 36.0816 31.534 35.9781C32.0185 35.8248 32.4546 35.5477 32.7991 35.1742C33.1437 34.8006 33.3847 34.3437 33.4985 33.8484L40.4016 3.7023C40.5223 3.18211 40.4988 2.63888 40.3339 2.13101C40.1689 1.62314 39.8686 1.16985 39.4653 0.819875ZM12.8075 18.1878L3.66449 16.3703L29.2942 6.29097L12.8075 18.1878ZM14.625 31.7187V23.0164L19.2516 27.0921L14.625 31.7187ZM30.6344 33.1875L15.5063 19.8769L37.2989 4.14292L30.6344 33.1875Z" fill="white"/>
</svg>
