<svg width="18" height="24" viewBox="0 0 18 24" fill="none" xmlns="http://www.w3.org/2000/svg">
<path d="M16.8813 6.55629L11.1938 0.868792C11.1223 0.789404 11.0344 0.726492 10.9362 0.684407C10.838 0.642321 10.7318 0.622066 10.625 0.625042H2.5C2.06942 0.626328 1.65684 0.797946 1.35237 1.10241C1.0479 1.40688 0.876286 1.81946 0.875 2.25004V21.75C0.876286 22.1806 1.0479 22.5932 1.35237 22.8977C1.65684 23.2021 2.06942 23.3738 2.5 23.375H15.5C15.9306 23.3738 16.3432 23.2021 16.6476 22.8977C16.9521 22.5932 17.1237 22.1806 17.125 21.75V7.12504C17.128 7.01825 17.1077 6.91208 17.0656 6.81388C17.0236 6.71568 16.9606 6.62779 16.8813 6.55629ZM10.625 2.57504L15.175 7.12504H10.625V2.57504ZM15.5 21.75H2.5V2.25004H9V7.12504C9.00129 7.55562 9.1729 7.9682 9.47737 8.27267C9.78184 8.57714 10.1944 8.74876 10.625 8.75004H15.5V21.75Z" fill="#141542"/>
</svg>
