<svg width="39" height="38" viewBox="0 0 39 38" fill="none" xmlns="http://www.w3.org/2000/svg">
<path d="M19.5 0.3125C16.1839 0.312254 12.925 1.15726 10.044 2.76432C7.16298 4.37139 4.7593 6.68509 3.06957 9.47765C1.37985 12.2702 0.462349 15.4453 0.407407 18.6904C0.352465 21.9354 1.16197 25.1386 2.75624 27.9844L1.19569 33.375C1.05011 33.8662 1.04193 34.3867 1.17199 34.882C1.30206 35.3774 1.56561 35.8295 1.93512 36.1911C2.30464 36.5528 2.76657 36.8107 3.2727 36.938C3.77883 37.0653 4.3106 37.0573 4.81249 36.9148L10.3203 35.3875C12.8728 36.7567 15.7113 37.5367 18.6189 37.6677C21.5266 37.7988 24.4264 37.2775 27.0966 36.1437C29.7669 35.0098 32.1369 33.2935 34.0256 31.1259C35.9143 28.9583 37.2717 26.3967 37.9939 23.6371C38.7162 20.8774 38.7842 17.9926 38.1929 15.2032C37.6015 12.4138 36.3663 9.79371 34.5818 7.5431C32.7973 5.2925 30.5107 3.47098 27.8968 2.21779C25.2828 0.964595 22.4107 0.312895 19.5 0.3125ZM19.5 34.8125C16.5998 34.8099 13.7533 34.0467 11.2566 32.6023C11.0262 32.4766 10.7676 32.4087 10.5039 32.4047C10.3674 32.4049 10.2315 32.423 10.1 32.4586L4.00467 34.1656L5.74881 28.2C5.80247 28.0112 5.81711 27.8139 5.79189 27.6195C5.76667 27.4251 5.7021 27.2376 5.60194 27.068C3.78318 24.0675 3.02935 20.5626 3.45787 17.0991C3.88639 13.6356 5.47321 10.4081 7.97115 7.91922C10.4691 5.43035 13.7379 3.81987 17.2684 3.33865C20.799 2.85742 24.393 3.53247 27.4907 5.25863C30.5884 6.9848 33.0159 9.66517 34.395 12.8822C35.7742 16.0993 36.0275 19.6725 35.1156 23.0452C34.2037 26.4178 32.1778 29.4007 29.3533 31.529C26.5289 33.6574 23.0646 34.8118 19.5 34.8125ZM29.1387 21.7133L25.375 19.6109C24.9242 19.357 24.412 19.2264 23.892 19.2327C23.372 19.2391 22.8633 19.3821 22.4191 19.6469L20.2344 20.9227C19.1198 20.2812 18.191 19.372 17.5355 18.2812L18.839 16.143C19.1096 15.7083 19.2557 15.2104 19.2622 14.7014C19.2686 14.1924 19.1352 13.6912 18.8758 13.25L16.7277 9.56641C16.4888 9.15783 16.1441 8.81811 15.7283 8.5815C15.3125 8.3449 14.8403 8.21978 14.3594 8.21875C12.6096 8.21874 10.9313 8.8978 9.69231 10.107C8.45333 11.3163 7.75485 12.957 7.74999 14.6695C7.74998 18.8649 9.45157 22.8887 12.4809 25.857C15.5103 28.8253 19.6196 30.4952 23.9062 30.5H23.9246C25.6743 30.4952 27.3507 29.8116 28.5863 28.599C29.8218 27.3864 30.5156 25.7438 30.5156 24.0312C30.5146 23.5605 30.3867 23.0984 30.145 22.6914C29.9032 22.2845 29.5561 21.9471 29.1387 21.7133ZM23.9246 27.625C22.1856 27.6274 20.4632 27.2939 18.8561 26.6436C17.249 25.9934 15.7888 25.0392 14.5592 23.8357C13.3295 22.6322 12.3545 21.2031 11.6902 19.6302C11.0258 18.0573 10.6851 16.3715 10.6875 14.6695C10.6872 13.7365 11.0595 12.8404 11.7249 12.1723C12.3904 11.5042 13.2962 11.1172 14.2492 11.0938L16.3238 14.6695L14.598 17.4727C14.4786 17.6726 14.4096 17.8975 14.3968 18.1288C14.3841 18.3601 14.4279 18.591 14.5246 18.8023C15.5478 21.0619 17.3933 22.8681 19.7019 23.8695C19.9179 23.9642 20.1538 24.0071 20.3901 23.9946C20.6264 23.9821 20.8563 23.9146 21.0605 23.7977L23.9246 22.1086L27.5781 24.1391C27.5542 25.0718 27.1587 25.9584 26.4761 26.6096C25.7935 27.2609 24.8779 27.6253 23.9246 27.625Z" fill="white"/>
</svg>
