<svg width="40" height="38" viewBox="0 0 40 38" fill="none" xmlns="http://www.w3.org/2000/svg">
<path d="M38.6698 18.6993L22.0667 2.1048L20.9538 0.991905C20.7002 0.740008 20.3573 0.598633 19.9999 0.598633C19.6425 0.598633 19.2995 0.740008 19.046 0.991905L1.32996 18.6993C1.07014 18.9581 0.86479 19.2664 0.726047 19.6059C0.587303 19.9453 0.517974 20.3092 0.522151 20.6759C0.539338 22.1884 1.79832 23.3958 3.31082 23.3958H5.13699V37.3907H34.8628V23.3958H36.7276C37.4624 23.3958 38.1542 23.1079 38.6741 22.588C38.9301 22.3328 39.1329 22.0294 39.2709 21.6953C39.4088 21.3611 39.4791 21.003 39.4776 20.6415C39.4776 19.911 39.1897 19.2192 38.6698 18.6993ZM22.4061 34.297H17.5936V25.5314H22.4061V34.297ZM31.769 20.3021V34.297H25.1561V24.5001C25.1561 23.5505 24.387 22.7814 23.4374 22.7814H16.5624C15.6128 22.7814 14.8436 23.5505 14.8436 24.5001V34.297H8.23074V20.3021H4.10574L20.0042 4.41651L20.9968 5.40909L35.8983 20.3021H31.769Z" fill="#F15A2F"/>
</svg>
