<svg width="19" height="25" viewBox="0 0 19 25" fill="none" xmlns="http://www.w3.org/2000/svg">
<path d="M5.4805 1.09901L4.405 1.42301C3.44737 1.71181 2.59216 2.26815 1.94004 3.02657C1.28792 3.78499 0.866017 4.71392 0.724001 5.70401C0.278501 8.80601 1.2745 12.433 3.676 16.5925C6.0715 20.7415 8.7085 23.4145 11.611 24.5845C12.5436 24.9604 13.5645 25.0605 14.5524 24.8731C15.5402 24.6856 16.4534 24.2184 17.1835 23.527L17.9965 22.756C18.5244 22.2564 18.853 21.5821 18.9211 20.8584C18.9893 20.1347 18.7924 19.4109 18.367 18.8215L16.333 16.0015C16.058 15.6208 15.6708 15.3357 15.2256 15.1861C14.7804 15.0366 14.2996 15.0301 13.8505 15.1675L10.774 16.108L10.6945 16.123C10.3555 16.1725 9.5725 15.439 8.5975 13.75C7.5775 11.983 7.3675 10.9495 7.648 10.6825L9.2125 9.22301C9.78462 8.68971 10.1754 7.99068 10.3301 7.22399C10.4848 6.4573 10.3956 5.66143 10.075 4.94801L9.082 2.74151C8.78341 2.07753 8.25355 1.54478 7.59119 1.24258C6.92884 0.940383 6.17919 0.889356 5.482 1.09901H5.4805ZM7.7155 3.35651L8.7055 5.56301C8.8983 5.99086 8.95222 6.46836 8.85967 6.92843C8.76712 7.38849 8.53275 7.808 8.1895 8.12801L6.6205 9.58901C5.617 10.54 5.95 12.163 7.3 14.5C8.569 16.699 9.727 17.785 10.972 17.596L11.158 17.557L14.29 16.6015C14.4397 16.5555 14.6001 16.5576 14.7486 16.6073C14.897 16.6571 15.0262 16.7521 15.118 16.879L17.152 19.699C17.365 19.9937 17.4637 20.3557 17.4298 20.7177C17.3958 21.0797 17.2315 21.4171 16.9675 21.667L16.153 22.438C15.6315 22.9315 14.9793 23.265 14.2739 23.3988C13.5684 23.5325 12.8394 23.4609 12.1735 23.1925C9.6265 22.1665 7.219 19.726 4.9765 15.8425C2.728 11.95 1.8175 8.63951 2.209 5.91701C2.31034 5.20966 2.61168 4.54598 3.07753 4.00413C3.54338 3.46228 4.15435 3.06481 4.8385 2.85851L5.914 2.53451C6.26269 2.42974 6.63758 2.45536 6.96877 2.6066C7.29996 2.75784 7.56483 3.02438 7.714 3.35651H7.7155Z" fill="#141542"/>
</svg>
